<svg width="256" height="256" viewBox="0 0 256 256" fill="none" xmlns="http://www.w3.org/2000/svg">
<path d="M170.183 0.950202C168.67 1.4503 166.631 2.75057 165.579 3.80078L163.672 5.65116L163.474 91.8688C163.343 177.736 163.343 178.036 162.027 179.037C161.238 179.637 160.383 180.637 160.054 181.337C159.66 182.037 159.397 189.039 159.397 197.09V211.543H149.794H140.258L140.455 209.943C140.586 208.643 141.047 208.293 142.691 207.943C146.111 207.292 151.044 204.442 152.951 202.041C155.582 198.791 156.108 195.44 156.108 181.387C156.108 169.985 156.24 168.835 157.358 167.584C159.134 165.684 160.186 162.333 159.66 160.133C159.002 157.432 157.752 155.782 154.99 154.182C152.885 152.931 151.965 152.781 146.835 152.631L141.113 152.431L140.718 150.631C139.403 144.279 131.05 139.028 122.237 139.028H118.159L116.909 136.978C114.213 132.377 107.109 128.526 99.8748 127.726C97.507 127.476 95.9286 126.926 94.1528 125.726C89.6804 122.725 86.655 121.825 80.8015 121.775C74.4875 121.775 70.8702 122.925 66.5294 126.326C64.0301 128.276 63.4382 128.526 60.6758 128.526C54.8881 128.526 51.0076 129.827 46.4037 133.327C43.3125 135.678 41.2079 136.828 38.6429 137.478C30.882 139.579 23.7131 144.73 20.885 150.281L19.7669 152.531H14.1106C7.86249 152.531 4.50822 153.531 2.00896 156.082C-0.88492 159.083 -0.62184 164.684 2.60089 167.884L4.17937 169.485V183.638C4.24514 199.091 4.44245 199.991 7.99403 203.442C9.83559 205.142 14.7026 207.492 18.1226 208.243C18.9776 208.443 19.3065 209.043 19.3065 210.393C19.3065 211.443 20.0299 220.945 20.9507 231.497C22.7265 252.252 22.7923 252.502 26.7385 254.752L28.5801 255.802L138.811 255.952C260.485 256.052 251.804 256.302 254.434 252.902C255.684 251.401 255.75 250.151 255.947 235.298C256.079 226.496 255.947 218.345 255.75 217.144C255.487 215.644 254.697 214.494 253.053 213.294L250.751 211.543H241.609C233.256 211.543 232.27 211.643 231.086 212.543C229.31 213.894 229.376 216.594 231.152 217.845C232.27 218.595 233.783 218.795 239.373 218.945C245.555 219.145 246.213 219.245 246.213 220.095C246.213 220.995 244.437 221.045 178.47 221.045C111.779 221.045 110.727 221.045 110.727 220.095C110.727 219.145 111.45 219.095 137.232 218.945C166.237 218.795 165.25 218.895 168.013 215.694C169.131 214.394 169.262 213.044 169.262 199.391V184.488L178.338 184.638L187.349 184.788L187.678 199.791C188.007 215.794 188.072 216.144 191.427 217.845C193.005 218.695 194.518 218.795 203.199 218.795C212.078 218.795 213.328 218.695 214.578 217.845C216.353 216.594 216.419 213.894 214.643 212.543C213.46 211.643 212.473 211.543 205.436 211.543H197.543V197.64C197.543 183.387 197.149 180.837 194.912 179.287C193.597 178.386 193.597 177.736 193.597 149.281C193.597 120.575 193.597 120.125 192.216 118.824C190.506 117.174 187.02 117.024 185.047 118.524C183.732 119.524 183.732 120.175 183.732 148.28V177.036H178.47H173.208V115.774V54.5111H178.47H183.732V80.0164C183.732 104.871 183.797 105.572 185.047 106.522C187.02 108.022 190.506 107.872 192.216 106.222C193.597 104.871 193.597 104.721 193.597 56.0615C193.597 9.752 193.531 7.15147 192.347 5.25108C190.045 1.35028 186.362 7.64149e-06 178.338 7.64149e-06C174.458 7.64149e-06 172.09 0.300069 170.183 0.950202ZM182.942 8.10166C183.534 8.55176 183.732 13.6028 183.732 27.8557V47.0096H178.47H173.208V27.5556C173.208 12.4526 173.406 8.05165 174.063 7.85161C175.708 7.3015 182.153 7.50154 182.942 8.10166ZM85.0765 129.777C86.1288 130.177 87.5758 131.227 88.4308 132.127C90.667 134.628 91.5877 135.028 95.5997 135.028C100.204 135.028 105.136 136.778 107.307 139.228C108.096 140.129 109.083 142.079 109.346 143.579C110.201 147.63 113.686 149.13 117.962 147.28C122.565 145.28 129.077 147.38 130.721 151.381L131.181 152.531H80.8672C51.7969 152.531 30.4874 152.331 30.4874 152.081C30.4874 151.281 36.5382 146.53 38.6429 145.68C39.761 145.18 42.5891 144.48 44.9568 144.029C48.5741 143.329 49.4292 142.979 50.5472 141.529C54.2961 136.778 58.1766 135.328 64.1616 136.528C68.1078 137.278 69.6863 136.628 72.054 133.427C74.8822 129.476 80.4068 127.926 85.0765 129.777ZM149.86 161.033C150.847 163.333 149.597 163.533 135.785 163.533C123.618 163.533 122.697 163.583 121.382 164.534C119.277 166.034 119.408 168.634 121.645 169.985C123.092 170.835 124.341 171.035 128.551 171.035H133.746L133.681 172.885C133.681 173.936 133.154 180.637 132.562 187.788L131.444 200.791L121.447 200.941L111.45 201.091L110.069 199.041C109.28 197.89 107.504 196.44 105.926 195.64L103.163 194.29H79.8149H56.4665L53.7042 195.64C52.1257 196.44 50.3499 197.89 49.5607 199.041L48.2453 201.041H38.3798H28.5801L28.2512 199.391C27.9881 197.99 25.8835 173.385 25.8835 171.635C25.8835 171.185 33.9732 171.035 64.2932 171.035C102.111 171.035 102.703 171.035 104.413 169.985C106.649 168.634 106.781 166.034 104.676 164.534C103.295 163.533 102.637 163.533 56.9927 163.533C12.0718 163.533 10.7564 163.483 10.0987 162.583C9.76983 162.033 9.63828 161.233 9.8356 160.833C10.2302 160.133 17.1361 160.033 79.8149 160.033C149.4 160.033 149.465 160.033 149.86 161.033ZM16.018 172.135C16.018 172.785 16.4784 178.136 17.0045 184.038C18.2542 197.79 18.2542 200.091 17.1361 199.741C16.6757 199.641 15.7549 198.841 15.163 198.09C14.1764 196.84 14.0449 194.99 14.0449 183.838C14.0449 172.785 14.1764 171.035 15.0314 171.035C15.6234 171.035 16.018 171.485 16.018 172.135ZM146.243 182.637C146.243 194.89 145.848 197.09 143.48 199.041L141.968 200.291L141.77 198.641C141.639 197.74 142.033 191.789 142.56 185.388C143.151 178.987 143.612 173.135 143.612 172.385C143.612 171.385 143.941 171.035 144.927 171.035C146.177 171.035 146.243 171.385 146.243 182.637ZM101.387 203.892L101.19 205.792H79.8149H58.4396L58.2423 203.892L58.045 202.041H79.8149H101.585L101.387 203.892ZM50.1526 209.693C50.613 210.343 52.1915 211.493 53.7042 212.193L56.4008 213.544H79.5518H102.769L101.782 215.294C101.059 216.594 100.861 219.395 100.861 227.046V237.048H66.0032H31.1451V235.398C31.1451 234.548 30.6847 229.047 30.1585 223.296C29.6324 217.494 29.172 211.843 29.172 210.643V208.543H39.2348C49.1661 208.543 49.3634 208.543 50.1526 209.693ZM130.458 210.043V211.543H119.211H108.03L109.411 210.043L110.793 208.543H120.658H130.458V210.043ZM246.213 238.549V248.551H178.47H110.727V238.549V228.547H178.47H246.213V238.549ZM100.861 246.55V248.551H66.7267H32.592L32.1974 247.401C31.1451 244.3 28.317 244.55 66.332 244.55H100.861V246.55Z" fill="white"/>
<path d="M87.3785 137.478C83.1692 138.278 79.0914 140.629 77.1841 143.429C76.5922 144.38 76.5922 144.93 77.2499 146.08C78.8941 149.13 81.9195 149.281 86.1288 146.48C88.8254 144.68 89.5489 144.48 91.522 144.73C92.9689 144.88 94.5474 145.63 95.9286 146.78C98.4278 148.83 100.532 149.03 103.097 147.48C105.86 145.83 105.465 143.529 101.914 140.779C97.9017 137.728 92.5743 136.528 87.3785 137.478Z" fill="white"/>
<path d="M55.0852 141.779C51.7967 143.279 50.2183 144.98 50.2183 147.03C50.2183 150.281 55.4141 151.731 58.3737 149.281C59.2288 148.58 60.6099 148.03 61.5307 148.03C62.4515 148.03 63.7669 148.58 64.5561 149.281C66.3319 150.831 69.4231 150.931 71.2647 149.531C73.2378 148.03 73.2378 146.13 71.1331 143.879C67.9762 140.479 60.1495 139.479 55.0852 141.779Z" fill="white"/>
<path d="M93.0345 81.3166C84.616 84.5173 82.0509 92.6689 87.5756 98.5702C93.0345 104.371 103.229 105.222 110.332 100.421C113.818 98.1201 115.528 95.1695 115.462 91.4687C115.462 82.8169 103.492 77.3658 93.0345 81.3166ZM104.15 88.7681C106.32 90.5685 106.189 93.3191 103.821 94.8694C99.4142 97.77 92.903 94.3693 94.9419 90.2184C95.9284 88.3681 97.4411 87.5679 100.269 87.5179C101.913 87.5179 103.032 87.868 104.15 88.7681Z" fill="white"/>
<path d="M124.21 108.472C117.896 110.673 114.41 116.024 115.988 121.125C117.238 124.926 121.645 128.176 126.775 129.076C129.997 129.626 130.984 129.576 134.009 128.876C140.52 127.276 144.73 122.575 144.138 117.524C143.217 110.223 132.825 105.472 124.21 108.472ZM132.891 116.124C134.93 117.574 134.864 119.674 132.694 120.975C130.523 122.275 129.077 122.275 127.301 121.125C124.999 119.674 124.801 117.774 126.775 116.324C128.813 114.723 130.852 114.673 132.891 116.124Z" fill="white"/>
</svg>
